<?xml version="1.0" encoding="UTF-8"?>
<svg width="394px" height="522px" viewBox="0 0 394 522" version="1.1" xmlns="http://www.w3.org/2000/svg" xmlns:xlink="http://www.w3.org/1999/xlink">
    <!-- Generator: Sketch 53.2 (72643) - https://sketchapp.com -->
    <title>avatar</title>
    <desc>Created with Sketch.</desc>
    <g id="Page-1" stroke="none" stroke-width="1" fill="none" fill-rule="evenodd">
        <g id="Icon-Copy" transform="translate(-175.000000, -112.000000)" fill="currentColor" fill-rule="nonzero" stroke="currentColor">
            <g id="avatar" transform="translate(181.000000, 118.000000)">
                <path d="M111.5,239.266274 C109.0142,239.266274 107,241.339412 107,243.89657 L107,264.635977 C107,267.193136 109.0142,269.266274 111.5,269.266274 C113.9858,269.266274 116,267.193136 116,264.635977 L116,243.89657 C116,241.339412 113.9858,239.266274 111.5,239.266274 Z" id="Path" stroke-width="13"></path>
                <path d="M268.167014,269.267288 C270.652814,269.267288 272.667014,267.263254 272.667014,264.791334 L272.667014,244.743241 C272.667014,242.271321 270.652814,240.267288 268.167014,240.267288 C265.681214,240.267288 263.667014,242.271321 263.667014,244.743241 L263.667014,264.791334 C263.667014,267.263254 265.681214,269.267288 268.167014,269.267288 Z" id="Path" stroke-width="13"></path>
                <path d="M378.774968,187.997172 C378.774968,137.949216 359.279543,90.8840225 323.879769,55.4741101 C297.263024,28.8462128 263.743952,11.0327741 226.949113,3.95707748 C215.302957,1.71341556 203.326283,0.575869846 191.354679,0.575869846 C88.0215266,0.575869846 3.95365374,84.6528674 3.95365374,187.997172 C-4.88314156,304.501525 3.7663965,377.052677 29.9022679,405.650628 C50.0210735,427.664687 68.8992006,455.769554 96.1465635,471.872619 L96.9860357,473.369069 C109.456457,495.591765 133.033663,509.396419 158.51489,509.396419 L224.204607,509.396419 C249.686847,509.396419 273.264054,495.591765 285.733461,473.369069 L286.574961,471.869577 C313.825365,455.761443 333.053819,429.584085 352.822298,405.647586 C377.906912,375.27409 386.557802,302.723952 378.774968,187.997172 Z M191.353665,15.7837003 C202.362107,15.7837003 213.370548,16.8289852 224.073819,18.891167 C257.872716,25.3899799 288.665531,41.7576608 313.123777,66.2260462 C345.652313,98.7637064 363.566123,142.010721 363.566123,187.997172 L363.566123,206.866034 C298.115677,206.130989 239.945725,197.015416 190.607468,179.692683 C186.644307,178.302687 182.305006,180.38616 180.913997,184.348307 C179.522987,188.310454 181.607474,192.650768 185.56962,194.041778 C236.51788,211.929228 296.382998,221.33375 363.56511,222.073865 L363.56511,237.664933 L322.301196,302.071108 L192.283371,286.151552 C191.669988,286.076526 191.049509,286.076526 190.436126,286.151552 L60.4183005,302.071108 L19.1594565,237.674057 L19.1594565,219.900159 C38.2057433,212.664273 56.1469278,200.295238 70.1472566,184.629145 C81.7711083,171.622394 89.6295012,157.389893 93.1070251,143.341913 C104.2716,153.070869 124.103625,167.692691 154.91469,181.742699 C158.733883,183.483488 163.244525,181.799474 164.988357,177.979267 C166.731174,174.158047 165.046146,169.648418 161.223912,167.905601 C136.121867,156.459174 119.021168,144.692368 109.095524,136.837017 C98.3516989,128.333812 93.472013,122.457506 93.4395697,122.417966 C91.4098312,119.92084 88.025582,118.971871 84.9941545,120.048586 C81.9617131,121.1253 79.9350162,123.995525 79.9350162,127.213502 C79.9350162,142.460873 72.4324865,159.252345 58.809312,174.49566 C47.9255747,186.674091 33.8664424,196.881587 19.1614842,203.454411 L19.1614842,187.996158 C19.1604703,93.0384651 96.4061105,15.7837003 191.353665,15.7837003 Z M272.471219,465.926357 C262.689542,483.3596 244.194793,494.188589 224.205621,494.188589 L158.515904,494.188589 C138.525718,494.188589 120.031982,483.3596 110.250305,465.927371 L86.1369823,389.636558 L70.4428787,344.064773 C70.4428787,339.865384 55.2350483,339.865384 55.2350483,344.064773 L70.9291518,391.623714 C70.9291518,392.926518 71.2637241,394.208032 71.9014391,395.344563 L91.7701292,451.608023 C77.7373571,439.433648 52.4970485,413.994657 42.9972238,397.914911 C27.4041283,371.522229 19.1614842,341.274868 19.1614842,310.440485 L19.1614842,265.866333 L48.9931644,312.427641 L55.2350483,344.064773 C55.2350483,348.264162 70.4428787,348.264162 70.4428787,344.064773 L64.2009948,316.930173 L191.361776,301.36141 L318.522557,316.930173 L298.759008,385.135093 L272.471219,465.926357 Z M339.730384,397.910856 C330.230559,413.98756 307.827921,435.257261 293.794135,447.43265 L310.365244,392.379554 C310.790388,391.621867 318.578431,364.971567 333.729374,312.428655 L363.567137,265.858223 L363.567137,310.441498 C363.567137,341.273854 355.324493,371.520201 339.730384,397.910856 Z" id="Shape" stroke-width="12"></path>
            </g>
        </g>
    </g>
</svg>