<svg xmlns="http://www.w3.org/2000/svg" width="544" height="601" viewBox="0 0 544 601">
  <g fill="none" fill-rule="evenodd" transform="translate(-148 -91)">
    <path stroke="currentColor" stroke-linecap="round" stroke-width="40" d="M391.5,671 C434.387562,671 475.019016,661.340455 511.33743,644.078296 C605.738519,599.209416 671,502.976026 671,391.5 C671,278.054101 603.411692,180.394297 506.305897,136.59141 C471.28176,120.792576 432.417688,112 391.5,112 C271.486897,112 169.140454,187.639962 129.533191,293.847365 C118.196689,324.246344 112,357.149515 112,391.5" transform="rotate(53 391.5 391.5)"/>
    <path stroke="currentColor" stroke-linecap="round" stroke-width="40" d="M475.653374,557.747349 C498.404599,545.536226 518.211528,528.547539 533.73387,508.122213 C556.588209,478.04896 570.154343,440.525701 570.154343,399.832396 C570.154343,358.671491 556.274645,320.753903 532.94235,290.508835 C515.070694,267.342257 491.653217,248.677131 464.679407,236.503892 C442.248923,226.381048 417.359231,220.747349 391.154343,220.747349 C367.153752,220.747349 344.256401,225.473122 323.341209,234.045332 C284.911387,249.796012 253.173497,278.532577 233.579701,314.800275 C219.91286,340.097306 212.154343,369.058371 212.154343,399.832396 C212.154343,430.008293 219.6142,458.441019 232.78952,483.38535" transform="rotate(-61 391.154 389.247)"/>
    <circle cx="391.5" cy="389.5" r="72.5" fill="currentColor"/>
  </g>
</svg>
