<svg xmlns="http://www.w3.org/2000/svg" width="512" height="512" viewBox="0 0 512 512">
  <g fill="none" fill-rule="evenodd">
    <path fill="currentColor" fill-rule="nonzero" d="M160.406 61.8L186.275 51.084C196.479 46.856 201.326 35.157 197.098 24.952 192.87 14.747 181.172 9.898 170.966 14.129L145.097 24.845C134.893 29.073 130.046 40.772 134.274 50.977 138.488 61.148 150.168 66.038 160.406 61.8zM256 0C244.954 0 236 8.954 236 20 236 31.046 244.954 40 256 40 375.378 40 472 136.608 472 256 472 375.378 375.392 472 256 472 136.622 472 40 375.392 40 256 40 244.954 31.046 236 20 236 8.954 236 0 244.954 0 256 0 397.483 114.497 512 256 512 397.483 512 512 397.503 512 256 512 114.517 397.503 0 256 0zM93.366 113.165L113.165 93.366C120.976 85.555 120.976 72.891 113.165 65.081 105.354 57.271 92.69 57.27 84.88 65.081L65.081 84.88C57.27 92.691 57.27 105.355 65.081 113.165 72.89 120.974 85.555 120.976 93.366 113.165z"/>
    <path fill="currentColor" fill-rule="nonzero" d="M93.366 113.165L113.165 93.366C120.976 85.555 120.976 72.891 113.165 65.081 105.354 57.271 92.69 57.27 84.88 65.081L65.081 84.88C57.27 92.691 57.27 105.355 65.081 113.165 72.89 120.974 85.555 120.976 93.366 113.165zM24.952 197.099C35.179 201.335 46.866 196.457 51.084 186.276L61.8 160.406C66.028 150.201 61.181 138.502 50.977 134.274 40.77 130.047 29.073 134.893 24.845 145.097L14.129 170.966C9.901 181.172 14.748 192.871 24.952 197.099z"/>
    <path stroke="#000" stroke-width="30" d="M148,184.459335 L148,345.459336 L364,345.459336 L364,184.459336 L313.184344,184.459336 C304.850319,184.459336 297.389831,179.291383 294.460535,171.48919 C287.884603,153.974413 275.882631,146 255.5,146 C234.923612,146 221.85045,154.245479 213.796041,172.096224 C210.400478,179.621709 202.910437,184.459328 194.654365,184.459328 L148,184.459335 Z"/>
    <circle cx="256" cy="256" r="23" fill="currentColor"/>
  </g>
</svg>
