<svg xmlns="http://www.w3.org/2000/svg" width="13" height="15" viewBox="0 0 13 15">
  <g fill="none" fill-rule="evenodd">
    <path fill="currentColor" d="M2.5,-7.16990091e-05 L11.0000484,-8.010454e-05 C12.1046179,-8.010454e-05 13.0000484,0.895350396 13.0000484,1.9999199 C13.0000484,1.9999227 13.0000484,1.9999255 13.0000484,1.9999283 L13.0000023,10.4497546 C13.0000005,10.8813289 12.6501389,11.2311876 12.2185645,11.2311858 C12.0812998,11.2311852 11.9464569,11.1950278 11.8276069,11.1263527 C11.8276069,11.1263527 11.8276069,11.1263527 11.8276069,11.1263527 C11.0460115,10.674723 9.5131014,10.6209687 7.22887664,10.9650897 C4.84841775,10.5892826 3.20133916,10.5093934 2.28764088,10.725422 C1.3739426,10.9414506 0.61139564,11.5910554 -2.13162821e-14,12.6742362 L-2.13162821e-14,2.4999283 C-2.14853705e-14,1.11921643 1.11928813,-7.16990091e-05 2.5,-7.16990091e-05 Z"/>
    <path stroke="currentColor" d="M2.5,10.5 C1.3954305,10.5 0.5,11.3954305 0.5,12.5 C0.5,13.6045695 1.3954305,14.5 2.5,14.5 L12.1395399,14.5 C12.2009481,14.5 12.2591774,14.4726973 12.2984507,14.4254894 C12.3714635,14.3377254 12.3595054,14.20739 12.2717414,14.1343772 L11.6932673,13.6531316 C11.6228826,13.5945769 11.5580067,13.529701 11.499452,13.4593162 C10.9696363,12.8224592 11.0564104,11.8766842 11.6932673,11.3468684 L12.2717414,10.8656228 C12.3189492,10.8263495 12.3462519,10.7681203 12.3462519,10.706712 C12.3462519,10.5925481 12.2537038,10.5 12.1395399,10.5 L2.5,10.5 Z"/>
  </g>
</svg>
